<?xml version="1.0" encoding="UTF-8"?>
<svg width="42px" height="38px" viewBox="0 0 42 38" version="1.1" xmlns="http://www.w3.org/2000/svg" xmlns:xlink="http://www.w3.org/1999/xlink">
    <title>icon-response-time</title>
    <g id="For-Individuals-Final" stroke="none" stroke-width="1" fill="none" fill-rule="evenodd">
        <g id="For-Individuals-R6" transform="translate(-437.000000, -3049.000000)">
            <g id="Learn-better-with-support-along-the-way" transform="translate(131.000000, 2907.000000)">
                <g id="icon-response-time" transform="translate(307.000000, 143.000000)">
                    <path d="M32.4617304,17.5578425 C32.4617304,25.5812209 25.8811035,32.0856807 17.7637714,32.0856807 C9.64725634,32.0856807 3.06662936,25.5812209 3.06662936,17.5578425 C3.06662936,9.53446413 9.64725634,3.0300043 17.7637714,3.0300043 C25.8811035,3.0300043 32.4617304,9.53446413 32.4617304,17.5578425" id="Fill-1" fill="#3F7DFF"></path>
                    <path d="M21.6690937,34.6904524 C20.4126065,34.969042 19.1054677,35.116008 17.7640165,35.116008 C7.95312273,35.116008 0,27.2549383 0,17.5576003 C0,7.86106971 7.95312273,0 17.7640165,0 C27.5749103,0 35.528033,7.86106971 35.528033,17.5576003" id="Stroke-3" stroke="#0B0B0B" stroke-linecap="round" stroke-linejoin="round"></path>
                    <polyline id="Stroke-5" stroke="#FFFFFF" stroke-linecap="round" stroke-linejoin="round" points="17.7641799 5.98087302 17.7641799 17.5580848 10.3175735 17.5580848"></polyline>
                    <polyline id="Stroke-7" stroke="#0B0B0B" stroke-linecap="round" stroke-linejoin="round" points="31.0623566 14.7568469 35.5229679 19.165829 39.9999183 14.7398893"></polyline>
                    <line x1="35.5226411" y1="19.1654252" x2="35.5226411" y2="17.557681" id="Stroke-9" stroke="#0B0B0B" stroke-linecap="round" stroke-linejoin="round"></line>
                    <path d="M40,29.1494279 C40,33.4857344 36.4437655,37 32.0574978,37 C27.6704131,37 24.1141786,33.4857344 24.1141786,29.1494279 C24.1141786,24.8131213 27.6704131,21.2980482 32.0574978,21.2980482 C36.4437655,21.2980482 40,24.8131213 40,29.1494279" id="Fill-11" fill="#BDEA09"></path>
                    <path d="M31.6448504,32.289253 L27.4097206,32.289253 L27.4097206,31.6658584 L29.1065502,29.9805937 C29.623687,29.4629824 29.96436,29.0947597 30.1285694,28.8743106 C30.2935956,28.653054 30.4169569,28.4382574 30.498653,28.2291134 C30.5811662,28.0199694 30.6220143,27.7954828 30.6220143,27.5540385 C30.6220143,27.2140785 30.5182601,26.9451791 30.3091179,26.7457251 C30.1007927,26.5470787 29.8115882,26.4477555 29.4415045,26.4477555 C29.1735411,26.4477555 28.9202829,26.4905533 28.6809131,26.5777639 C28.4415433,26.6649745 28.1743968,26.8232457 27.8811076,27.0533849 L27.4930507,26.5608063 C28.0869819,26.0722652 28.7331987,25.8283985 29.4325179,25.8283985 C30.0378866,25.8283985 30.5125414,25.9818246 30.8556653,26.2886768 C31.1996062,26.5947215 31.3719852,27.0065495 31.3719852,27.5233533 C31.3719852,27.9271062 31.2567935,28.3268216 31.0280443,28.7208845 C30.798478,29.1165624 30.3695731,29.6164085 29.7405125,30.2196154 L28.3304365,31.5834928 L28.3304365,31.6182156 L31.6448504,31.6182156 L31.6448504,32.289253 Z" id="Fill-13" fill="#000000"></path>
                    <path d="M35.4527908,30.1675313 L35.4527908,28.0510584 C35.4527908,27.6351929 35.4674962,27.1660319 35.4969068,26.6435756 L35.4617774,26.6435756 C35.320443,26.9221652 35.1880952,27.1531118 35.064734,27.3364157 L33.0509233,30.1675313 L35.4527908,30.1675313 Z M37.1095893,30.8256486 L36.153744,30.8256486 L36.153744,32.2896567 L35.4527908,32.2896567 L35.4527908,30.8256486 L32.3189255,30.8256486 L32.3189255,30.194179 L35.3776304,25.8853276 L36.153744,25.8853276 L36.153744,30.1675313 L37.1095893,30.1675313 L37.1095893,30.8256486 Z" id="Fill-15" fill="#000000"></path>
                </g>
            </g>
        </g>
    </g>
</svg>