<?xml version="1.0" encoding="UTF-8"?>
<svg width="40px" height="40px" viewBox="0 0 40 40" version="1.1" xmlns="http://www.w3.org/2000/svg" xmlns:xlink="http://www.w3.org/1999/xlink">
    <title>icon-support</title>
    <defs>
        <polygon id="path-1" points="0 0 29.7311773 0 29.7311773 18.9136 0 18.9136"></polygon>
        <polygon id="path-3" points="0 0 11.6581166 0 11.6581166 10.1813181 0 10.1813181"></polygon>
        <polygon id="path-5" points="1.7763746e-16 0 11.5433154 0 11.5433154 10.17256 1.7763746e-16 10.17256"></polygon>
    </defs>
    <g id="For-Individuals-Final" stroke="none" stroke-width="1" fill="none" fill-rule="evenodd">
        <g id="For-Individuals-R6" transform="translate(-131.000000, -3049.000000)">
            <g id="Learn-better-with-support-along-the-way" transform="translate(131.000000, 2907.000000)">
                <g id="icon-support" transform="translate(0.000000, 142.000000)">
                    <g id="Group-3" transform="translate(10.268823, 0.000000)">
                        <mask id="mask-2" fill="white">
                            <use xlink:href="#path-1"></use>
                        </mask>
                        <g id="Clip-2"></g>
                        <path d="M27.2210722,18.9136 L2.5096251,18.9136 C1.12401124,18.9136 0,17.7896 0,16.4032 L0,2.5104 C0,1.124 1.12401124,0 2.5096251,0 L27.2210722,0 C28.6074861,0 29.7314973,1.124 29.7314973,2.5104 L29.7314973,16.4032 C29.7314973,17.7896 28.6074861,18.9136 27.2210722,18.9136" id="Fill-1" fill="#00C5A1" mask="url(#mask-2)"></path>
                    </g>
                    <g id="Group-6" transform="translate(28.341883, 14.618640)">
                        <mask id="mask-4" fill="white">
                            <use xlink:href="#path-3"></use>
                        </mask>
                        <g id="Clip-5"></g>
                        <path d="M10.2385024,9.9432 L0,0 L11.6585166,0 L11.6585166,9.3432 C11.6585166,10.0824 10.7689077,10.4584 10.2385024,9.9432" id="Fill-4" fill="#00C5A1" mask="url(#mask-4)"></path>
                    </g>
                    <path d="M27.1342713,9.4568 C27.1342713,10.5496 26.2390624,11.436 25.1342513,11.436 C24.0294403,11.436 23.1342313,10.5496 23.1342313,9.4568 C23.1342313,8.364 24.0294403,7.4776 25.1342513,7.4776 C26.2390624,7.4776 27.1342713,8.364 27.1342713,9.4568 Z" id="Stroke-7" stroke="#0B0B0B" stroke-linecap="round" stroke-linejoin="round"></path>
                    <path d="M20.3810838,9.4568 C20.3810838,10.5496 19.4858749,11.436 18.3810638,11.436 C17.2762528,11.436 16.3810438,10.5496 16.3810438,9.4568 C16.3810438,8.364 17.2762528,7.4776 18.3810638,7.4776 C19.4858749,7.4776 20.3810838,8.364 20.3810838,9.4568 Z" id="Stroke-9" stroke="#0B0B0B" stroke-linecap="round" stroke-linejoin="round"></path>
                    <path d="M33.8875389,9.4568 C33.8875389,10.5496 32.9923299,11.436 31.8875189,11.436 C30.7827078,11.436 29.8874989,10.5496 29.8874989,9.4568 C29.8874989,8.364 30.7827078,7.4776 31.8875189,7.4776 C32.9923299,7.4776 33.8875389,8.364 33.8875389,9.4568 Z" id="Stroke-11" stroke="#0B0B0B" stroke-linecap="round" stroke-linejoin="round"></path>
                    <path d="M2.51122511,34.12472 L26.9266693,34.12472 C28.3138831,34.12472 29.4386944,32.99992 29.4386944,31.61352 L29.4386944,17.71192 C29.4386944,16.32472 28.3138831,15.19992 26.9266693,15.19992 L2.51122511,15.19992 C1.12401124,15.19992 0,16.32472 0,17.71192 L0,31.61352 C0,32.99992 1.12401124,34.12472 2.51122511,34.12472" id="Fill-13" fill="#9E62FF"></path>
                    <g id="Group-17" transform="translate(0.000000, 29.827440)">
                        <mask id="mask-6" fill="white">
                            <use xlink:href="#path-5"></use>
                        </mask>
                        <g id="Clip-16"></g>
                        <path d="M1.42321423,9.9312 L11.5433154,0 L1.7763746e-16,0 L1.7763746e-16,9.3336 C1.7763746e-16,10.076 0.893608936,10.4512 1.42321423,9.9312" id="Fill-15" fill="#9E62FF" mask="url(#mask-6)"></path>
                    </g>
                    <path d="M12.7189272,24.66232 C12.7189272,25.76712 13.6141361,26.66232 14.7189472,26.66232 C15.8237582,26.66232 16.7189672,25.76712 16.7189672,24.66232 C16.7189672,23.55752 15.8237582,22.66232 14.7189472,22.66232 C13.6141361,22.66232 12.7189272,23.55752 12.7189272,24.66232 Z" id="Stroke-18" stroke="#0B0B0B" stroke-linecap="round" stroke-linejoin="round"></path>
                    <path d="M19.4057141,24.66232 C19.4057141,25.76712 20.300923,26.66232 21.4057341,26.66232 C22.5105451,26.66232 23.4057541,25.76712 23.4057541,24.66232 C23.4057541,23.55752 22.5105451,22.66232 21.4057341,22.66232 C20.300923,22.66232 19.4057141,23.55752 19.4057141,24.66232 Z" id="Stroke-20" stroke="#0B0B0B" stroke-linecap="round" stroke-linejoin="round"></path>
                    <path d="M6.03222032,24.66232 C6.03222032,25.76712 6.92742927,26.66232 8.03224032,26.66232 C9.13705137,26.66232 10.0322603,25.76712 10.0322603,24.66232 C10.0322603,23.55752 9.13705137,22.66232 8.03224032,22.66232 C6.92742927,22.66232 6.03222032,23.55752 6.03222032,24.66232 Z" id="Stroke-22" stroke="#0B0B0B" stroke-linecap="round" stroke-linejoin="round"></path>
                </g>
            </g>
        </g>
    </g>
</svg>