<?xml version="1.0" encoding="UTF-8"?>
<svg width="40px" height="40px" viewBox="0 0 40 40" version="1.1" xmlns="http://www.w3.org/2000/svg" xmlns:xlink="http://www.w3.org/1999/xlink">
    <title>icon-highly-vetted</title>
    <defs>
        <polygon id="path-1" points="0 0 23.0576 0 23.0576 28.79992 0 28.79992"></polygon>
    </defs>
    <g id="For-Individuals-Final" stroke="none" stroke-width="1" fill="none" fill-rule="evenodd">
        <g id="For-Individuals-R6" transform="translate(-744.000000, -3049.000000)">
            <g id="Learn-better-with-support-along-the-way" transform="translate(131.000000, 2907.000000)">
                <g id="icon-highly-vetted" transform="translate(613.000000, 142.000000)">
                    <path d="M11.2,33.2 C11.2,36.2928 8.6928,38.8 5.6,38.8 C2.5072,38.8 0,36.2928 0,33.2 C0,30.1072 2.5072,27.6 5.6,27.6 C8.6928,27.6 11.2,30.1072 11.2,33.2" id="Fill-1" fill="#00C5A1"></path>
                    <path d="M3.0708,36.04528 C3.0708,34.64848 4.2028,33.51568 5.6004,33.51568 L5.6004,33.51568 C6.9972,33.51568 8.1292,34.64848 8.1292,36.04528" id="Stroke-3" stroke="#0B0B0B" stroke-width="0.8" stroke-linecap="round"></path>
                    <path d="M7.00512,31.1516 C7.00512,31.9276 6.37632,32.5564 5.60032,32.5564 C4.82432,32.5564 4.19472,31.9276 4.19472,31.1516 C4.19472,30.3756 4.82432,29.7468 5.60032,29.7468 C6.37632,29.7468 7.00512,30.3756 7.00512,31.1516 Z" id="Stroke-5" stroke="#0B0B0B" stroke-width="0.8" stroke-linecap="round"></path>
                    <path d="M40,33.2 C40,36.2928 37.4928,38.8 34.4,38.8 C31.3072,38.8 28.8,36.2928 28.8,33.2 C28.8,30.1072 31.3072,27.6 34.4,27.6 C37.4928,27.6 40,30.1072 40,33.2" id="Fill-7" fill="#00C5A1"></path>
                    <path d="M31.8708,36.04528 C31.8708,34.64848 33.0028,33.51568 34.4004,33.51568 L34.4004,33.51568 C35.7972,33.51568 36.9292,34.64848 36.9292,36.04528" id="Stroke-9" stroke="#0B0B0B" stroke-width="0.8" stroke-linecap="round"></path>
                    <path d="M35.80512,31.1516 C35.80512,31.9276 35.17632,32.5564 34.40032,32.5564 C33.62432,32.5564 32.99472,31.9276 32.99472,31.1516 C32.99472,30.3756 33.62432,29.7468 34.40032,29.7468 C35.17632,29.7468 35.80512,30.3756 35.80512,31.1516 Z" id="Stroke-11" stroke="#0B0B0B" stroke-width="0.8" stroke-linecap="round"></path>
                    <g id="Group-15" transform="translate(8.471520, 0.000000)">
                        <mask id="mask-2" fill="white">
                            <use xlink:href="#path-1"></use>
                        </mask>
                        <g id="Clip-14"></g>
                        <path d="M10.8504,0.21632 C9.2312,1.35552 4.9784,4.10032 1.0336,4.53792 C0.4416,4.60352 0,5.10832 0,5.70512 L0,16.95632 C0,19.52592 1.0504,21.83632 2.812,23.13792 C4.6512,24.49712 10.1432,28.11872 10.376,28.27232 L10.8832,28.60672 C11.2744,28.86432 11.7824,28.86432 12.1736,28.60672 L12.6808,28.27232 C12.9136,28.11872 18.4056,24.49712 20.2448,23.13792 C22.0064,21.83632 23.0576,19.52592 23.0576,16.95632 L23.0576,5.70512 C23.0576,5.10832 22.6152,4.60352 22.0232,4.53792 C18.0784,4.10032 13.8256,1.35552 12.2064,0.21632 C11.7968,-0.07248 11.2608,-0.07248 10.8504,0.21632" id="Fill-13" fill="#9E62FF" mask="url(#mask-2)"></path>
                    </g>
                    <polyline id="Stroke-16" stroke="#0B0B0B" stroke-width="0.8" stroke-linecap="round" stroke-linejoin="round" points="13.75288 13.51032 18.49528 18.25272 26.24728 10.50072"></polyline>
                    <path d="M26.8,33.2 C26.8,36.9552 23.7552,40 20,40 C16.2448,40 13.2,36.9552 13.2,33.2 C13.2,29.4448 16.2448,26.4 20,26.4 C23.7552,26.4 26.8,29.4448 26.8,33.2" id="Fill-18" fill="#00C5A1"></path>
                    <path d="M16.9288,36.65496 C16.9288,34.95896 18.304,33.58376 20,33.58376 L20,33.58376 C21.696,33.58376 23.0712,34.95896 23.0712,36.65496" id="Stroke-20" stroke="#0B0B0B" stroke-width="0.8" stroke-linecap="round"></path>
                    <path d="M21.70624,30.71264 C21.70624,31.65504 20.94224,32.41904 19.99984,32.41904 C19.05744,32.41904 18.29344,31.65504 18.29344,30.71264 C18.29344,29.77024 19.05744,29.00624 19.99984,29.00624 C20.94224,29.00624 21.70624,29.77024 21.70624,30.71264 Z" id="Stroke-22" stroke="#0B0B0B" stroke-width="0.8" stroke-linecap="round"></path>
                </g>
            </g>
        </g>
    </g>
</svg>